<?xml version="1.0" encoding="UTF-8"?>
<svg width="218px" height="65px" viewBox="0 0 218 65" version="1.1" xmlns="http://www.w3.org/2000/svg" xmlns:xlink="http://www.w3.org/1999/xlink">
    <!-- Generator: Sketch 40.3 (33839) - http://www.bohemiancoding.com/sketch -->
    <title>Artboard</title>
    <desc>Created with Sketch.</desc>
    <defs></defs>
    <g id="Page-1" stroke="none" stroke-width="1" fill="none" fill-rule="evenodd">
        <g id="Artboard">
            <g id="Group" transform="translate(123.304211, 26.733676) rotate(2.000000) translate(-123.304211, -26.733676) translate(1.304211, -12.766324)">
                <polygon id="Shape" stroke-opacity="0" stroke="grey" stroke-width="2" fill-opacity="0" fill="#FFFFFF" points="0.24 17.2 239.69 0.95 243.75 60.81 4.3 77.06"></polygon>
                <g id="a-link" transform="translate(67.136373, 35.140883) rotate(-3.880917) translate(-67.136373, -35.140883) translate(25.636373, 26.140883)" fill="grey">
                    <g id="a" transform="translate(0.000059, 0.992313)">
                        <g id="g-link" transform="translate(0.650391, 0.090820)">
                            <polyline id="g" points="6.95214844 0 6.95214844 1.14257812 1.14257812 1.14257812 1.14257812 4.90429688 5.80957031 4.90429688 5.80957031 6.046875 1.14257812 6.046875 1.14257812 10.7666016 6.95214844 10.7666016 6.95214844 11.9091797 0 11.9091797 0 0 6.95214844 0"></polyline>
                        </g>
                        <g id="h-link" transform="translate(8.947266, 3.395508)">
                            <path d="M4.13964844,1.14257813 C2.41699219,1.14257813 1.14257813,2.64550781 1.14257813,4.40332031 L1.14257813,8.60449219 L3.55271368e-14,8.60449219 L3.55271368e-14,0.193359375 L1.14257813,0.193359375 L1.14257813,1.72265625 C1.81933594,0.571289063 2.8125,7.10542736e-15 4.13964844,7.10542736e-15 C6.64453125,7.10542736e-15 8.0859375,1.7578125 8.0859375,4.33300781 L8.0859375,8.60449219 L6.92578125,8.60449219 L6.92578125,4.40332031 C6.94335938,2.47851563 5.99414063,1.14257813 4.13964844,1.14257813" id="h"></path>
                        </g>
                        <g id="i-link" transform="translate(18.562500, 3.386719)">
                            <path d="M2.84217094e-14,4.41210938 C2.84217094e-14,2.16210938 1.94238281,-0.0615234375 4.20117188,0.0087890625 C5.96777344,0.0615234375 7.30371094,1.11621094 7.9453125,2.41699219 L6.609375,2.41699219 C5.98535156,1.57324219 5.17675781,1.15136719 4.20117188,1.15136719 C2.54003906,1.15136719 1.14257813,2.73339844 1.14257813,4.42089844 C1.14257813,6.09960938 2.54882813,7.6640625 4.20117188,7.6640625 C5.08007813,7.6640625 5.86230469,7.27734375 6.5390625,6.50390625 L7.90136719,6.50390625 C7.04003906,8.04199219 5.80957031,8.80664063 4.20117188,8.80664063 C1.96875,8.80664063 2.84217094e-14,6.65332031 2.84217094e-14,4.41210938" id="i"></path>
                        </g>
                        <g id="j-link" transform="translate(28.098633, 3.395508)">
                            <path d="M7.28613281,4.41210937 C7.28613281,2.75097656 5.87988281,1.14257812 4.20117188,1.14257812 C2.54003906,1.14257812 1.14257813,2.73339844 1.14257813,4.41210937 C1.14257813,6.09082031 2.54882813,7.65527344 4.20117188,7.65527344 C5.85351563,7.65527344 7.28613281,6.07324219 7.28613281,4.41210937 L7.28613281,4.41210937 Z M3.19744231e-14,4.40332031 C3.19744231e-14,2.15332031 1.93359375,7.10542736e-15 4.20117188,7.10542736e-15 C6.45996094,7.10542736e-15 8.42871094,2.16210938 8.42871094,4.41210938 C8.42871094,6.66210938 6.44238281,8.79785156 4.20117188,8.79785156 C1.96875,8.79785156 3.19744231e-14,6.64453125 3.19744231e-14,4.40332031 L3.19744231e-14,4.40332031 Z" id="j"></path>
                        </g>
                        <g id="k-link" transform="translate(38.118164, 3.588867)">
                            <path d="M3.65625,7.46191406 C5.33496094,7.46191406 6.21386719,5.9765625 6.21386719,4.20996094 L6.21386719,1.42108547e-14 L7.35644531,1.42108547e-14 L7.35644531,8.41113281 L6.21386719,8.41113281 L6.21386719,7.20703125 C5.57226562,8.13867188 4.71972656,8.60449219 3.65625,8.60449219 C1.3359375,8.60449219 -1.42108547e-14,6.80273438 -1.42108547e-14,4.40332031 L-1.42108547e-14,1.42108547e-14 L1.14257812,1.42108547e-14 L1.14257812,4.40332031 C1.10742187,6.00292969 2.12695312,7.46191406 3.65625,7.46191406" id="k"></path>
                        </g>
                        <g id="l-link" transform="translate(47.302734, 3.588867)">
                            <path d="M4.20117188,1.14257812 C2.52246094,1.14257812 1.16015625,2.54003906 1.16015625,4.20996094 L1.16015625,8.41113281 L0,8.41113281 L0,0 L1.16015625,0 L1.16015625,1.52929688 C1.90722656,0.509765625 2.90039062,0 4.13964844,0 L5.93261719,0 L5.93261719,1.52929688 C5.32617187,1.27441406 4.75488281,1.14257812 4.20117188,1.14257812" id="l"></path>
                        </g>
                        <g id="m-link" transform="translate(54.351562, 3.395508)">
                            <path d="M3.515625,7.65527344 C4.46484375,7.65527344 6.17871094,7.20703125 6.17871094,6.3984375 L6.17871094,4.46484375 C6.16113281,4.66699219 3.20800781,4.63183594 2.97070313,4.79882812 C2.05664063,4.97460938 1.21289063,5.51953125 1.21289063,6.3984375 C1.21289063,7.23339844 1.97753906,7.65527344 3.515625,7.65527344 L3.515625,7.65527344 Z M3.76171875,1.42108547e-14 C5.17675781,1.42108547e-14 7.32128906,0.87890625 7.32128906,2.1796875 L7.32128906,7.26855469 C7.32128906,7.50585938 7.46191406,7.62890625 7.74316406,7.65527344 C7.734375,7.83984375 7.71679688,8.21777344 7.69921875,8.7890625 C7.06640625,8.75390625 6.62695313,8.49902344 6.37207031,8.02441406 C5.65136719,8.54296875 4.71972656,8.79785156 3.57714844,8.79785156 C1.1953125,8.79785156 2.84217094e-14,7.98925781 2.84217094e-14,6.38085938 C2.84217094e-14,5.10644531 1.08984375,4.15722656 2.1796875,3.84960938 C2.79492188,3.67382813 5.4140625,3.77050781 5.93261719,3.33984375 C6.08203125,3.26074219 6.16992188,3.12011719 6.1875,2.93554688 C6.17871094,2.99707031 6.17871094,2.82128906 6.17871094,2.40820313 C6.17871094,1.66992188 4.70214844,1.11621094 3.89355469,1.11621094 C2.43457031,1.11621094 1.52929688,1.62597656 1.17773438,2.64550781 L0.0703125,2.40820313 C0.342773438,0.84375 1.85449219,1.42108547e-14 3.76171875,1.42108547e-14 L3.76171875,1.42108547e-14 Z" id="m"></path>
                        </g>
                        <g id="n-link" transform="translate(63.281250, 3.395508)">
                            <path d="M1.14257812,4.40332031 C1.14257812,6.09082031 2.42578125,7.65527344 4.06933594,7.65527344 C5.71289062,7.65527344 6.91699219,6.08203125 6.91699219,4.40332031 C6.91699219,2.70703125 5.72167969,1.14257813 4.06933594,1.14257813 C2.42578125,1.14257813 1.14257812,2.72460938 1.14257812,4.40332031 L1.14257812,4.40332031 Z M4.06054688,10.9248047 C5.73925781,10.9511719 6.99609375,9.54492188 6.9609375,7.875 L6.9609375,7.07519531 C6.23144531,8.2265625 5.2734375,8.79785156 4.06933594,8.79785156 C1.74902344,8.79785156 5.68434189e-14,6.76757813 5.68434189e-14,4.40332031 C5.68434189e-14,2.12695313 1.828125,1.42108547e-14 4.06933594,1.42108547e-14 C5.29980469,1.42108547e-14 6.26660156,0.588867188 6.9609375,1.76660156 L6.9609375,0.193359375 L8.10351563,0.193359375 L8.10351563,7.99804688 C8.15625,10.2832031 6.33691406,12.0673828 4.05175781,12.0673828 C1.97753906,12.0673828 0.421875,10.546875 0.123046875,8.72753906 L1.23925781,8.54296875 C1.50292969,9.87011719 2.54882813,10.8984375 4.06054688,10.9248047 L4.06054688,10.9248047 Z" id="n"></path>
                        </g>
                        <g id="o-link" transform="translate(72.993164, 3.395508)">
                            <path d="M4.35207426e-14,4.40332031 C4.35207426e-14,2.15332031 2.00390625,7.10542736e-15 4.26269531,7.10542736e-15 C6.58300781,7.10542736e-15 8.56054688,2.1796875 8.48144531,4.53515625 L1.125,4.53515625 C1.125,6.1171875 2.65429688,7.65527344 4.26269531,7.65527344 C5.56347656,7.65527344 6.90820313,6.68847656 7.3125,5.73046875 L8.45507813,5.93261719 C7.93652344,7.37402344 6.12597656,8.75390625 4.26269531,8.79785156 C2.00390625,8.85058594 4.35207426e-14,6.65332031 4.35207426e-14,4.40332031 L4.35207426e-14,4.40332031 Z M7.16308594,3.39257813 C6.82910156,2.25878906 5.65136719,1.13378906 4.26269531,1.14257813 C2.87402344,1.14257813 1.66992188,2.28515625 1.27441406,3.39257813 L7.16308594,3.39257813 L7.16308594,3.39257813 Z" id="o"></path>
                        </g>
                    </g>
                </g>
                <g id="b-link" transform="translate(126.159376, 29.124606) rotate(-3.880917) translate(-126.159376, -29.124606) translate(113.159376, 22.124606)" fill="grey">
                    <g id="b" transform="translate(0.992313, 0.999941)">
                        <g id="p-link" transform="translate(0.228516, 1.778320)">
                            <path d="M3.33984375,10.2216797 C2.22363281,10.2568359 1.31835938,9.29882813 1.31835938,8.18261719 L1.31835938,2.953125 L0,2.953125 L0,1.81054688 C0.659179688,1.81054688 1.0546875,1.66113281 1.20410156,1.36230469 C1.28320312,1.21289063 1.31835938,0.755859375 1.31835938,1.42108547e-14 L2.4609375,1.42108547e-14 L2.4609375,1.81054688 L4.57910156,1.81054688 L4.57910156,2.953125 L2.4609375,2.953125 L2.4609375,8.18261719 C2.4609375,8.79785156 2.89160156,9.10546875 3.74414062,9.10546875 C3.90234375,9.10546875 4.4296875,9.07910156 4.57910156,9.07910156 L4.57910156,10.2216797 L3.33984375,10.2216797" id="p"></path>
                        </g>
                        <g id="q-link" transform="translate(6.029297, 0.090820)">
                            <path d="M4.12207031,4.44726563 C2.50488281,4.44726563 1.14257812,6.07324219 1.14257812,7.70800781 L1.14257812,11.9091797 L0,11.9091797 L0,1.77635684e-14 L1.14257812,1.77635684e-14 L1.14257812,5.02734375 C1.88085938,3.87597656 2.87402344,3.3046875 4.12207031,3.3046875 C6.31933594,3.3046875 7.82226562,5.37011719 7.82226562,7.63769531 L7.82226562,11.9091797 L6.6796875,11.9091797 L6.6796875,7.70800781 C6.71484375,5.99414063 5.73925781,4.44726563 4.12207031,4.44726563" id="q"></path>
                        </g>
                        <g id="o-link" transform="translate(15.196289, 3.395508)">
                            <path d="M-4.17443857e-14,4.40332031 C-4.17443857e-14,2.15332031 2.00390625,-3.55271368e-14 4.26269531,-3.55271368e-14 C6.58300781,-3.55271368e-14 8.56054687,2.1796875 8.48144531,4.53515625 L1.125,4.53515625 C1.125,6.1171875 2.65429687,7.65527344 4.26269531,7.65527344 C5.56347656,7.65527344 6.90820312,6.68847656 7.3125,5.73046875 L8.45507812,5.93261719 C7.93652344,7.37402344 6.12597656,8.75390625 4.26269531,8.79785156 C2.00390625,8.85058594 -4.17443857e-14,6.65332031 -4.17443857e-14,4.40332031 L-4.17443857e-14,4.40332031 Z M7.16308594,3.39257812 C6.82910156,2.25878906 5.65136719,1.13378906 4.26269531,1.14257812 C2.87402344,1.14257812 1.66992187,2.28515625 1.27441406,3.39257812 L7.16308594,3.39257812 L7.16308594,3.39257812 Z" id="o"></path>
                        </g>
                    </g>
                </g>
                <g id="c-link" transform="translate(170.074903, 26.646530) rotate(-3.880917) translate(-170.074903, -26.646530) translate(145.074903, 20.146530)" fill="grey">
                    <g id="c">
                        <g id="m-link" transform="translate(0.852539, 3.395508)">
                            <path d="M3.515625,7.65527344 C4.46484375,7.65527344 6.17871094,7.20703125 6.17871094,6.3984375 L6.17871094,4.46484375 C6.16113281,4.66699219 3.20800781,4.63183594 2.97070313,4.79882812 C2.05664063,4.97460938 1.21289063,5.51953125 1.21289063,6.3984375 C1.21289063,7.23339844 1.97753906,7.65527344 3.515625,7.65527344 L3.515625,7.65527344 Z M3.76171875,0 C5.17675781,0 7.32128906,0.87890625 7.32128906,2.1796875 L7.32128906,7.26855469 C7.32128906,7.50585938 7.46191406,7.62890625 7.74316406,7.65527344 C7.734375,7.83984375 7.71679688,8.21777344 7.69921875,8.7890625 C7.06640625,8.75390625 6.62695313,8.49902344 6.37207031,8.02441406 C5.65136719,8.54296875 4.71972656,8.79785156 3.57714844,8.79785156 C1.1953125,8.79785156 2.55795385e-13,7.98925781 2.55795385e-13,6.38085938 C2.55795385e-13,5.10644531 1.08984375,4.15722656 2.1796875,3.84960938 C2.79492188,3.67382812 5.4140625,3.77050781 5.93261719,3.33984375 C6.08203125,3.26074219 6.16992188,3.12011719 6.1875,2.93554688 C6.17871094,2.99707031 6.17871094,2.82128906 6.17871094,2.40820312 C6.17871094,1.66992188 4.70214844,1.11621094 3.89355469,1.11621094 C2.43457031,1.11621094 1.52929688,1.62597656 1.17773438,2.64550781 L0.0703125,2.40820312 C0.342773438,0.84375 1.85449219,0 3.76171875,0 L3.76171875,0 Z" id="m"></path>
                        </g>
                        <g id="k-link" transform="translate(9.958008, 3.588867)">
                            <path d="M3.65625,7.46191406 C5.33496094,7.46191406 6.21386719,5.9765625 6.21386719,4.20996094 L6.21386719,0 L7.35644531,0 L7.35644531,8.41113281 L6.21386719,8.41113281 L6.21386719,7.20703125 C5.57226562,8.13867188 4.71972656,8.60449219 3.65625,8.60449219 C1.3359375,8.60449219 0,6.80273438 0,4.40332031 L0,0 L1.14257812,0 L1.14257812,4.40332031 C1.10742188,6.00292969 2.12695312,7.46191406 3.65625,7.46191406" id="k"></path>
                        </g>
                        <g id="p-link" transform="translate(18.738281, 1.778320)">
                            <path d="M3.33984375,10.2216797 C2.22363281,10.2568359 1.31835938,9.29882812 1.31835938,8.18261719 L1.31835938,2.953125 L0,2.953125 L0,1.81054688 C0.659179688,1.81054688 1.0546875,1.66113281 1.20410156,1.36230469 C1.28320312,1.21289062 1.31835938,0.755859375 1.31835938,0 L2.4609375,0 L2.4609375,1.81054688 L4.57910156,1.81054688 L4.57910156,2.953125 L2.4609375,2.953125 L2.4609375,8.18261719 C2.4609375,8.79785156 2.89160156,9.10546875 3.74414062,9.10546875 C3.90234375,9.10546875 4.4296875,9.07910156 4.57910156,9.07910156 L4.57910156,10.2216797 L3.33984375,10.2216797" id="p"></path>
                        </g>
                        <g id="q-link" transform="translate(24.539062, 0.090820)">
                            <path d="M4.12207031,4.44726562 C2.50488281,4.44726562 1.14257812,6.07324219 1.14257812,7.70800781 L1.14257812,11.9091797 L0,11.9091797 L0,0 L1.14257812,0 L1.14257812,5.02734375 C1.88085937,3.87597656 2.87402344,3.3046875 4.12207031,3.3046875 C6.31933594,3.3046875 7.82226562,5.37011719 7.82226562,7.63769531 L7.82226562,11.9091797 L6.6796875,11.9091797 L6.6796875,7.70800781 C6.71484375,5.99414062 5.73925781,4.44726562 4.12207031,4.44726562" id="q"></path>
                        </g>
                        <g id="j-link" transform="translate(33.583008, 3.395508)">
                            <path d="M7.28613281,4.41210938 C7.28613281,2.75097656 5.87988281,1.14257812 4.20117188,1.14257812 C2.54003906,1.14257812 1.14257813,2.73339844 1.14257813,4.41210938 C1.14257813,6.09082031 2.54882813,7.65527344 4.20117188,7.65527344 C5.85351563,7.65527344 7.28613281,6.07324219 7.28613281,4.41210938 L7.28613281,4.41210938 Z M0,4.40332031 C0,2.15332031 1.93359375,0 4.20117188,0 C6.45996094,0 8.42871094,2.16210938 8.42871094,4.41210938 C8.42871094,6.66210938 6.44238281,8.79785156 4.20117188,8.79785156 C1.96875,8.79785156 0,6.64453125 0,4.40332031 L0,4.40332031 Z" id="j"></path>
                        </g>
                        <g id="l-link" transform="translate(43.646484, 3.588867)">
                            <path d="M4.20117188,1.14257812 C2.52246094,1.14257812 1.16015625,2.54003906 1.16015625,4.20996094 L1.16015625,8.41113281 L0,8.41113281 L0,0 L1.16015625,0 L1.16015625,1.52929688 C1.90722656,0.509765625 2.90039062,0 4.13964844,0 L5.93261719,0 L5.93261719,1.52929688 C5.32617188,1.27441406 4.75488281,1.14257812 4.20117188,1.14257812" id="l"></path>
                        </g>
                    </g>
                </g>
                <g id="d-link" transform="translate(209.427554, 24.478052) rotate(-3.880917) translate(-209.427554, -24.478052) translate(201.927554, 18.478052)" fill="grey">
                    <g id="d">
                        <g id="p-link" transform="translate(0.228516, 0.778320)">
                            <path d="M3.33984375,10.2216797 C2.22363281,10.2568359 1.31835938,9.29882812 1.31835938,8.18261719 L1.31835938,2.953125 L0,2.953125 L0,1.81054688 C0.659179688,1.81054688 1.0546875,1.66113281 1.20410156,1.36230469 C1.28320312,1.21289062 1.31835938,0.755859375 1.31835938,0 L2.4609375,0 L2.4609375,1.81054688 L4.57910156,1.81054688 L4.57910156,2.953125 L2.4609375,2.953125 L2.4609375,8.18261719 C2.4609375,8.79785156 2.89160156,9.10546875 3.74414062,9.10546875 C3.90234375,9.10546875 4.4296875,9.07910156 4.57910156,9.07910156 L4.57910156,10.2216797 L3.33984375,10.2216797" id="p"></path>
                        </g>
                        <g id="j-link" transform="translate(5.835937, 2.395508)">
                            <path d="M7.28613281,4.41210938 C7.28613281,2.75097656 5.87988281,1.14257813 4.20117187,1.14257813 C2.54003906,1.14257813 1.14257812,2.73339844 1.14257812,4.41210938 C1.14257812,6.09082031 2.54882812,7.65527344 4.20117187,7.65527344 C5.85351562,7.65527344 7.28613281,6.07324219 7.28613281,4.41210938 L7.28613281,4.41210938 Z M-2.27373675e-13,4.40332031 C-2.27373675e-13,2.15332031 1.93359375,7.10542736e-15 4.20117187,7.10542736e-15 C6.45996094,7.10542736e-15 8.42871094,2.16210938 8.42871094,4.41210938 C8.42871094,6.66210938 6.44238281,8.79785156 4.20117187,8.79785156 C1.96875,8.79785156 -2.27373675e-13,6.64453125 -2.27373675e-13,4.40332031 L-2.27373675e-13,4.40332031 Z" id="j"></path>
                        </g>
                    </g>
                </g>
                <g id="e-link" transform="translate(97.800282, 50.330885) rotate(-3.880917) translate(-97.800282, -50.330885) translate(78.300282, 43.830885)" fill="grey">
                    <g id="e">
                        <g id="r-link" transform="translate(0.527344, 3.588867)">
                            <polyline id="r" points="2.94433594 8.41113281 -1.13686838e-13 4.26325641e-14 1.20410156 4.26325641e-14 3.48046875 6.49511719 4.94824219 2.31152344 4.13085937 4.26325641e-14 5.33496094 4.26325641e-14 7.63769531 6.5390625 9.90527344 4.26325641e-14 11.1181641 4.26325641e-14 8.18261719 8.41113281 7.08398437 8.41113281 5.5546875 4.03417969 4.0078125 8.41113281 2.94433594 8.41113281"></polyline>
                        </g>
                        <g id="l-link" transform="translate(13.280273, 3.588867)">
                            <path d="M4.20117188,1.14257812 C2.52246094,1.14257812 1.16015625,2.54003906 1.16015625,4.20996094 L1.16015625,8.41113281 L0,8.41113281 L0,0 L1.16015625,0 L1.16015625,1.52929688 C1.90722656,0.509765625 2.90039062,0 4.13964844,0 L5.93261719,0 L5.93261719,1.52929688 C5.32617188,1.27441406 4.75488281,1.14257812 4.20117188,1.14257812" id="l"></path>
                        </g>
                        <g id="s-link" transform="translate(20.592773, 0.073242)">
                            <path d="M1.69628906,1.3359375 C1.34472656,1.3359375 1.00195312,1.01953125 1.00195312,0.66796875 C1.00195312,0.31640625 1.34472656,7.10542736e-15 1.69628906,7.10542736e-15 C2.05664062,7.10542736e-15 2.38183594,0.307617188 2.38183594,0.66796875 C2.38183594,1.02832031 2.05664062,1.3359375 1.69628906,1.3359375 L1.69628906,1.3359375 Z M-1.13686838e-13,3.515625 L2.25878906,3.515625 L2.25878906,11.9267578 L1.11621094,11.9267578 L1.11621094,4.65820312 L-1.13686838e-13,4.65820312 L-1.13686838e-13,3.515625 L-1.13686838e-13,3.515625 Z" id="s"></path>
                        </g>
                        <g id="p-link" transform="translate(23.923828, 1.778320)">
                            <path d="M3.33984375,10.2216797 C2.22363281,10.2568359 1.31835937,9.29882813 1.31835937,8.18261719 L1.31835937,2.953125 L-1.13686838e-13,2.953125 L-1.13686838e-13,1.81054688 C0.659179687,1.81054688 1.0546875,1.66113281 1.20410156,1.36230469 C1.28320312,1.21289063 1.31835937,0.755859375 1.31835937,1.42108547e-14 L2.4609375,1.42108547e-14 L2.4609375,1.81054688 L4.57910156,1.81054688 L4.57910156,2.953125 L2.4609375,2.953125 L2.4609375,8.18261719 C2.4609375,8.79785156 2.89160156,9.10546875 3.74414062,9.10546875 C3.90234375,9.10546875 4.4296875,9.07910156 4.57910156,9.07910156 L4.57910156,10.2216797 L3.33984375,10.2216797" id="p"></path>
                        </g>
                        <g id="o-link" transform="translate(29.531250, 3.395508)">
                            <path d="M-8.43769499e-14,4.40332031 C-8.43769499e-14,2.15332031 2.00390625,4.26325641e-14 4.26269531,4.26325641e-14 C6.58300781,4.26325641e-14 8.56054687,2.1796875 8.48144531,4.53515625 L1.125,4.53515625 C1.125,6.1171875 2.65429687,7.65527344 4.26269531,7.65527344 C5.56347656,7.65527344 6.90820312,6.68847656 7.3125,5.73046875 L8.45507812,5.93261719 C7.93652344,7.37402344 6.12597656,8.75390625 4.26269531,8.79785156 C2.00390625,8.85058594 -8.43769499e-14,6.65332031 -8.43769499e-14,4.40332031 L-8.43769499e-14,4.40332031 Z M7.16308594,3.39257813 C6.82910156,2.25878906 5.65136719,1.13378906 4.26269531,1.14257813 C2.87402344,1.14257813 1.66992187,2.28515625 1.27441406,3.39257813 L7.16308594,3.39257813 L7.16308594,3.39257813 Z" id="o"></path>
                        </g>
                    </g>
                </g>
                <g id="f-link" transform="translate(144.990787, 46.628459) rotate(-3.880917) translate(-144.990787, -46.628459) translate(122.490787, 39.628459)" fill="grey">
                    <g id="f" transform="translate(0.992313, 0.999941)">
                        <g id="t-link" transform="translate(0.650391, 3.395508)">
                            <path d="M3.34863281,1.14257812 C1.828125,1.14257812 1.14257812,2.72460938 1.14257812,4.40332031 L1.14257812,8.60449219 L0,8.60449219 L0,0.193359375 L1.14257812,0.193359375 L1.14257812,1.125 C1.66992188,0.377929688 2.40820312,0 3.34863281,0 C4.63183594,0 5.50195312,0.606445312 5.95019531,1.828125 C6.27539063,0.606445312 7.13671875,0 8.54296875,0 C10.5908203,0 11.6103516,1.46777344 11.6103516,4.40332031 L11.6103516,8.60449219 L10.4677734,8.60449219 L10.4677734,4.40332031 C10.4677734,2.23242188 9.82617188,1.14257812 8.54296875,1.14257812 C7.05761719,1.14257812 6.42480469,2.72460938 6.42480469,4.40332031 L6.42480469,8.60449219 L5.28222656,8.60449219 L5.2734375,4.40332031 C5.2734375,2.23242188 4.63183594,1.14257812 3.34863281,1.14257812" id="t"></path>
                        </g>
                        <g id="j-link" transform="translate(14.053711, 3.395508)">
                            <path d="M7.28613281,4.41210937 C7.28613281,2.75097656 5.87988281,1.14257812 4.20117187,1.14257812 C2.54003906,1.14257812 1.14257812,2.73339844 1.14257812,4.41210937 C1.14257812,6.09082031 2.54882812,7.65527344 4.20117187,7.65527344 C5.85351562,7.65527344 7.28613281,6.07324219 7.28613281,4.41210937 L7.28613281,4.41210937 Z M-1.42108547e-13,4.40332031 C-1.42108547e-13,2.15332031 1.93359375,-1.42108547e-14 4.20117187,-1.42108547e-14 C6.45996094,-1.42108547e-14 8.42871094,2.16210937 8.42871094,4.41210937 C8.42871094,6.66210937 6.44238281,8.79785156 4.20117187,8.79785156 C1.96875,8.79785156 -1.42108547e-13,6.64453125 -1.42108547e-13,4.40332031 L-1.42108547e-13,4.40332031 Z" id="j"></path>
                        </g>
                        <g id="l-link" transform="translate(24.117188, 3.588867)">
                            <path d="M4.20117188,1.14257813 C2.52246094,1.14257813 1.16015625,2.54003906 1.16015625,4.20996094 L1.16015625,8.41113281 L1.42108547e-13,8.41113281 L1.42108547e-13,7.10542736e-15 L1.16015625,7.10542736e-15 L1.16015625,1.52929688 C1.90722656,0.509765625 2.90039063,7.10542736e-15 4.13964844,7.10542736e-15 L5.93261719,7.10542736e-15 L5.93261719,1.52929688 C5.32617188,1.27441406 4.75488281,1.14257813 4.20117188,1.14257813" id="l"></path>
                        </g>
                        <g id="o-link" transform="translate(30.770508, 3.395508)">
                            <path d="M8.8817842e-16,4.40332031 C8.8817842e-16,2.15332031 2.00390625,0 4.26269531,0 C6.58300781,0 8.56054688,2.1796875 8.48144531,4.53515625 L1.125,4.53515625 C1.125,6.1171875 2.65429688,7.65527344 4.26269531,7.65527344 C5.56347656,7.65527344 6.90820313,6.68847656 7.3125,5.73046875 L8.45507812,5.93261719 C7.93652344,7.37402344 6.12597656,8.75390625 4.26269531,8.79785156 C2.00390625,8.85058594 8.8817842e-16,6.65332031 8.8817842e-16,4.40332031 L8.8817842e-16,4.40332031 Z M7.16308594,3.39257813 C6.82910156,2.25878906 5.65136719,1.13378906 4.26269531,1.14257813 C2.87402344,1.14257813 1.66992188,2.28515625 1.27441406,3.39257813 L7.16308594,3.39257813 L7.16308594,3.39257813 Z" id="o"></path>
                        </g>
                        <g id="u-link" transform="translate(41.150391, 0.125977)">
                            <path d="M0.10546875,9.21972656 L0.10546875,-7.10542736e-15 L1.24804688,-7.10542736e-15 L1.24804688,9.21972656 L0.10546875,9.21972656 L0.10546875,9.21972656 Z M0.615234375,11.8740234 C0.290039062,11.8740234 0,11.5839844 0,11.2587891 C0,10.9335938 0.290039062,10.6435547 0.615234375,10.6435547 C0.940429688,10.6435547 1.23925781,10.9335938 1.23925781,11.2587891 C1.23925781,11.5839844 0.940429688,11.8740234 0.615234375,11.8740234 L0.615234375,11.8740234 Z" id="u"></path>
                        </g>
                    </g>
                </g>
                <path d="M123.4,57.86 L123.27,58.16 L122.95,58.78 L122.58,59.43 L122.18,60.1 L121.7,60.8 L121.17,61.52 L120.57,62.27 L119.89,63.04 L119.11,63.84 L118.24,64.68 L117.27,65.55 L116.17,66.45 L114.93,67.35 L113.53,68.31 L111.98,69.29 L110.24,70.29 L108.31,71.27 L106.17,72.25 L103.82,73.21 L101.28,74.14 L98.54,75.01 L95.61,75.81 L92.51,76.51 L89.26,77.11 L85.91,77.57 L82.47,77.9 L78.97,78.08 L75.47,78.13 L71.97,78.03 L68.5,77.79 L65.08,77.39 L61.74,76.87 L58.44,76.22 L55.24,75.44 L52.14,74.54 L49.11,73.54 L46.17,72.42 L43.31,71.19 L40.54,69.87 L37.86,68.44 L35.26,66.91 L32.73,65.29 L30.29,63.56 L27.92,61.73 L25.62,59.79 L23.37,57.74 L21.21,55.58 L19.09,53.28 L17.04,50.88 L15.04,48.31 L13.11,45.61 L11.23,42.71 L9.41,39.67 L7.65,36.4 L6.71,34.46 M123.4,57.88 L123.8,56.93" id="Shape" stroke="grey" stroke-width="2"></path>
                <polygon id="Shape" stroke="grey" stroke-width="2" fill="grey" points="1.38 20.22 10.73 31.95 2.05 35.21"></polygon>
            </g>
        </g>
    </g>
</svg>